<svg width="21" height="24" viewBox="0 0 21 24" fill="none" xmlns="http://www.w3.org/2000/svg">
<path d="M19.62 5.80357H15.6736V5.33929C15.6736 2.39107 13.2825 0 10.3343 0C7.38607 0 4.995 2.39107 4.995 5.33929V5.80357H1.04857C0.53495 5.80357 0.119995 6.21853 0.119995 6.73214V22.2857C0.119995 22.7993 0.53495 23.2143 1.04857 23.2143H19.62C20.1336 23.2143 20.5486 22.7993 20.5486 22.2857V6.73214C20.5486 6.21853 20.1336 5.80357 19.62 5.80357ZM7.08428 5.33929C7.08428 3.54308 8.53808 2.08929 10.3343 2.08929C12.1305 2.08929 13.5843 3.54308 13.5843 5.33929V5.80357H7.08428V5.33929ZM18.4593 21.125H2.20928V7.89286H4.995V10.4464C4.995 10.5741 5.09946 10.6786 5.22714 10.6786H6.85214C6.97982 10.6786 7.08428 10.5741 7.08428 10.4464V7.89286H13.5843V10.4464C13.5843 10.5741 13.6887 10.6786 13.8164 10.6786H15.4414C15.5691 10.6786 15.6736 10.5741 15.6736 10.4464V7.89286H18.4593V21.125Z" fill="black"/>
</svg>
